{
  "source": "C:\\Users\\Peter\\Desktop\\stuff\\MIUN\\quantitative_research\\video_compression\\videos\\BVI-HD\\Music_1920x1080_30fps.mp4",
  "output": "C:\\Users\\Peter\\Desktop\\stuff\\MIUN\\quantitative_research\\video_compression\\compressed_videos\\BVI-HD\\vp9\\12\\Music_1920x1080_30fps_vp9.webm",
  "codec": "vp9",
  "ok": "Input #0, mov,mp4,m4a,3gp,3g2,mj2, from 'C:\\Users\\Peter\\Desktop\\stuff\\MIUN\\quantitative_research\\video_compression\\videos\\BVI-HD\\Music_1920x1080_30fps.mp4':\n  Metadata:\n    major_brand     : isom\n    minor_version   : 512\n    compatible_brands: isomiso2avc1mp41\n    encoder         : Lavf54.28.101\n  Duration: 00:00:05.00, start: 0.000000, bitrate: 192710 kb/s\n  Stream #0:0[0x1](und): Video: h264 (High 4:4:4 Predictive) (avc1 / 0x31637661), yuv420p(progressive), 1920x1080, 192707 kb/s, 30 fps, 30 tbr, 30 tbn (default)\n    Metadata:\n      handler_name    : VideoHandler\n      vendor_id       : [0][0][0][0]\n[out#0/webm @ 0000020f7d2fd9c0] Codec AVOption b:a (set bitrate (in bits/s)) has not been used for any stream. The most likely reason is either wrong type (e.g. a video option with no video streams) or that it is a private option of some decoder which was not actually used for any stream.\nStream mapping:\n  Stream #0:0 -> #0:0 (h264 (native) -> vp9 (libvpx-vp9))\nPress [q] to stop, [?] for help\n[libvpx-vp9 @ 0000020f7d370540] v1.15.2-100-g40561f514\nOutput #0, webm, to 'C:\\Users\\Peter\\Desktop\\stuff\\MIUN\\quantitative_research\\video_compression\\compressed_videos\\BVI-HD\\vp9\\12\\Music_1920x1080_30fps_vp9.webm':\n  Metadata:\n    major_brand     : isom\n    minor_version   : 512\n    compatible_brands: isomiso2avc1mp41\n    encoder         : Lavf62.3.100\n  Stream #0:0(und): Video: vp9, yuv420p(tv, progressive), 1920x1080, q=2-31, 12000 kb/s, 30 fps, 1k tbn (default)\n    Metadata:\n      encoder         : Lavc62.11.100 libvpx-vp9\n      handler_name    : VideoHandler\n      vendor_id       : [0][0][0][0]\n    Side data:\n      cpb: bitrate max/min/avg: 0/0/0 buffer size: 12000000 vbv_delay: N/A\nframe=    0 fps=0.0 q=0.0 size=       0KiB time=N/A bitrate=N/A speed=N/A elapsed=0:00:00.52    \nframe=    6 fps=5.5 q=20.0 size=       1KiB time=00:00:00.20 bitrate=  25.4kbits/s speed=0.182x elapsed=0:00:01.09    \nframe=   10 fps=6.2 q=16.0 size=       1KiB time=00:00:00.33 bitrate=  15.2kbits/s speed=0.206x elapsed=0:00:01.61    \nframe=   13 fps=6.0 q=19.0 size=       1KiB time=00:00:00.43 bitrate=  11.7kbits/s speed= 0.2x elapsed=0:00:02.16    \nframe=   18 fps=6.7 q=15.0 size=       1KiB time=00:00:00.60 bitrate=   8.5kbits/s speed=0.224x elapsed=0:00:02.67    \nframe=   21 fps=6.5 q=8.0 size=       1KiB time=00:00:00.70 bitrate=   7.2kbits/s speed=0.218x elapsed=0:00:03.21    \nframe=   25 fps=6.7 q=16.0 size=       1KiB time=00:00:00.83 bitrate=   6.1kbits/s speed=0.223x elapsed=0:00:03.73    \nframe=   30 fps=7.0 q=21.0 size=       1KiB time=00:00:01.00 bitrate=   5.1kbits/s speed=0.234x elapsed=0:00:04.27    \nframe=   32 fps=6.7 q=21.0 size=       1KiB time=00:00:01.06 bitrate=   4.8kbits/s speed=0.222x elapsed=0:00:04.79    \nframe=   36 fps=6.7 q=27.0 size=       1KiB time=00:00:01.20 bitrate=   4.2kbits/s speed=0.225x elapsed=0:00:05.34    \nframe=   40 fps=6.8 q=27.0 size=       1KiB time=00:00:01.33 bitrate=   3.8kbits/s speed=0.227x elapsed=0:00:05.88    \nframe=   43 fps=6.7 q=24.0 size=       1KiB time=00:00:01.43 bitrate=   3.5kbits/s speed=0.223x elapsed=0:00:06.41    \nframe=   47 fps=6.8 q=25.0 size=       1KiB time=00:00:01.56 bitrate=   3.2kbits/s speed=0.226x elapsed=0:00:06.94    \nframe=   50 fps=6.7 q=25.0 size=       1KiB time=00:00:01.66 bitrate=   3.0kbits/s speed=0.223x elapsed=0:00:07.45    \nframe=   53 fps=6.6 q=26.0 size=       1KiB time=00:00:01.76 bitrate=   2.9kbits/s speed=0.221x elapsed=0:00:07.97    \nframe=   57 fps=6.7 q=25.0 size=       1KiB time=00:00:01.90 bitrate=   2.7kbits/s speed=0.224x elapsed=0:00:08.49    \nframe=   60 fps=6.6 q=25.0 size=       1KiB time=00:00:02.00 bitrate=   2.5kbits/s speed=0.222x elapsed=0:00:09.02    \nframe=   64 fps=6.7 q=25.0 size=       1KiB time=00:00:02.13 bitrate=   2.4kbits/s speed=0.223x elapsed=0:00:09.54    \nframe=   68 fps=6.7 q=25.0 size=       1KiB time=00:00:02.26 bitrate=   2.2kbits/s speed=0.225x elapsed=0:00:10.08    \nframe=   70 fps=6.6 q=25.0 size=       1KiB time=00:00:02.33 bitrate=   2.2kbits/s speed=0.219x elapsed=0:00:10.63    \nframe=   74 fps=6.6 q=25.0 size=       1KiB time=00:00:02.46 bitrate=   2.1kbits/s speed=0.221x elapsed=0:00:11.16    \nframe=   77 fps=6.6 q=25.0 size=       1KiB time=00:00:02.56 bitrate=   2.0kbits/s speed=0.219x elapsed=0:00:11.70    \nframe=   80 fps=6.5 q=25.0 size=       1KiB time=00:00:02.66 bitrate=   1.9kbits/s speed=0.218x elapsed=0:00:12.23    \nframe=   84 fps=6.6 q=25.0 size=       1KiB time=00:00:02.80 bitrate=   1.8kbits/s speed=0.219x elapsed=0:00:12.75    \nframe=   88 fps=6.6 q=25.0 size=       1KiB time=00:00:02.93 bitrate=   1.7kbits/s speed=0.22x elapsed=0:00:13.30    \nframe=   90 fps=6.5 q=25.0 size=       1KiB time=00:00:03.00 bitrate=   1.7kbits/s speed=0.217x elapsed=0:00:13.84    \nframe=   94 fps=6.5 q=25.0 size=       1KiB time=00:00:03.13 bitrate=   1.6kbits/s speed=0.218x elapsed=0:00:14.35    \nframe=   98 fps=6.6 q=25.0 size=       1KiB time=00:00:03.26 bitrate=   1.6kbits/s speed=0.219x elapsed=0:00:14.88    \nframe=  100 fps=6.5 q=25.0 size=       1KiB time=00:00:03.33 bitrate=   1.5kbits/s speed=0.216x elapsed=0:00:15.41    \nframe=  103 fps=6.5 q=25.0 size=       1KiB time=00:00:03.43 bitrate=   1.5kbits/s speed=0.215x elapsed=0:00:15.93    \nframe=  107 fps=6.5 q=25.0 size=       1KiB time=00:00:03.56 bitrate=   1.4kbits/s speed=0.217x elapsed=0:00:16.46    \nframe=  110 fps=6.5 q=25.0 size=       1KiB time=00:00:03.66 bitrate=   1.4kbits/s speed=0.215x elapsed=0:00:17.01    \nframe=  114 fps=6.5 q=24.0 size=       1KiB time=00:00:03.80 bitrate=   1.3kbits/s speed=0.216x elapsed=0:00:17.56    \nframe=  117 fps=6.5 q=24.0 size=       1KiB time=00:00:03.90 bitrate=   1.3kbits/s speed=0.215x elapsed=0:00:18.11    \nframe=  120 fps=6.4 q=24.0 size=       1KiB time=00:00:04.00 bitrate=   1.3kbits/s speed=0.215x elapsed=0:00:18.63    \nframe=  124 fps=6.5 q=25.0 size=       1KiB time=00:00:04.13 bitrate=   1.2kbits/s speed=0.216x elapsed=0:00:19.16    \nframe=  126 fps=6.4 q=25.0 size=       1KiB time=00:00:04.20 bitrate=   1.2kbits/s speed=0.213x elapsed=0:00:19.67    \nframe=  126 fps=6.2 q=25.0 size=       1KiB time=00:00:04.20 bitrate=   1.2kbits/s speed=0.208x elapsed=0:00:20.21    \nframe=  126 fps=6.1 q=25.0 size=       1KiB time=00:00:04.20 bitrate=   1.2kbits/s speed=0.202x elapsed=0:00:20.75    \nframe=  126 fps=5.9 q=25.0 size=       1KiB time=00:00:04.20 bitrate=   1.2kbits/s speed=0.197x elapsed=0:00:21.27    \nframe=  126 fps=5.8 q=25.0 size=       1KiB time=00:00:04.20 bitrate=   1.2kbits/s speed=0.193x elapsed=0:00:21.78    \nframe=  126 fps=5.6 q=25.0 size=       1KiB time=00:00:04.20 bitrate=   1.2kbits/s speed=0.188x elapsed=0:00:22.33    \nframe=  126 fps=5.5 q=25.0 size=       1KiB time=00:00:04.20 bitrate=   1.2kbits/s speed=0.184x elapsed=0:00:22.86    \n[out#0/webm @ 0000020f7d2fd9c0] video:5721KiB audio:0KiB subtitle:0KiB other streams:0KiB global headers:0KiB muxing overhead: 0.032313%\nframe=  150 fps=6.5 q=18.0 Lsize=    5723KiB time=00:00:05.00 bitrate=9376.4kbits/s speed=0.217x elapsed=0:00:23.01    \n",
  "seconds": 23.29891085624695,
  "probe_out": {}
}